<svg id="Layer_1" data-name="Layer 1" xmlns="http://www.w3.org/2000/svg" width="16" height="16" viewBox="0 0 16 16"><title>logo-16</title><circle cx="7.8" cy="8" r="7.2"/><circle cx="7.8" cy="8" r="6.6" fill="#fff"/><circle cx="7.7" cy="8.1" r="6"/><circle cx="7.8" cy="8.1" r="5.4" fill="#fff"/><circle cx="7.8" cy="8.2" r="4.7"/><circle cx="7.8" cy="8.1" r="4.2" fill="#fff"/><path d="M15,8.1S11.8,12,7.8,12,.6,8.1.6,8.1,3.8,4.3,7.8,4.3,15,8.1,15,8.1Z"/><path d="M4.3,7.4H3.9l-.2-.3V6.7h.8c.1.1.1.1.1.2H4.4c.1.1.2.2.2.3s-.1.2-.1.3H3.7V7.3h.2a.3.3,0,0,0,.1.2h.3Z" fill="#fff"/><path d="M5.8,6.5v1c-.1.1-.1.2-.2.2H5c-.1,0-.1-.1-.1-.3V6.5h.3v.8c0,.2,0,.2.2.2h.1v-1Z" fill="#fff"/><path d="M6.6,7.3H6.4v.4H6.2V6.5H7c0,.1.1.2.1.3s0,.2-.1.2a.1.1,0,0,1-.1.1l.2.5H6.8Zm-.2-.2h.4a.1.1,0,0,0-.1-.1H6.4Z" fill="#fff"/><path d="M7.8,7.3H7.7v.4H7.4V6.5h.8a.4.4,0,0,1,.1.3v.2H8.1l.3.5H8.1Zm-.1-.2h0Z" fill="#fff"/><path d="M9.4,7.2H8.9v.3h.6v.2H8.7V6.5h.8v.3H8.9V7h.5Z" fill="#fff"/><path d="M10.4,7.5H10v.2H9.7l.4-1.2h.3l.4,1.2h-.3Zm-.3-.2h.2v0Z" fill="#fff"/><path d="M11.3,7.5h.5v.2H11V6.5h.3Z" fill="#fff"/><path d="M4.1,9.2l.3-.8h.3L4.3,9.6H4L3.6,8.4h.3Z" fill="#fff"/><path d="M5.4,9.6H5.1V8.4h.3Z" fill="#fff"/><path d="M6.5,9.3c0-.1,0-.1-.1-.1H6.1c-.1-.1-.2-.2-.2-.3V8.5h.8v.2H6.6c.1,0,.2.1.2.3v.2H5.9c0-.1-.1-.1-.1-.2h.3a.1.1,0,0,0,.1.1h.3Z" fill="#fff"/><path d="M7.5,9.6H7.2V8.4h.3Z" fill="#fff"/><path d="M9,9v.3l-.2.2H8.2V9.3A.4.4,0,0,1,8,9H8V8.7l.2-.3h.6v.2a.4.4,0,0,1,.1.3ZM8.7,9V8.7H8.5c-.1,0-.2.1-.2.3h0v.3h.4V9Z" fill="#fff"/><path d="M10.4,9.6h-.2l-.5-.8v.8H9.5V8.4h.2l.5.7V8.4h.2Z" fill="#fff"/><path d="M11.5,9.3h-.4c-.1-.1-.2-.2-.2-.3V8.5h.8v.2h-.2c.1,0,.2.1.2.3v.2h-.8V9.2h.6Z" fill="#fff"/></svg>