<svg id="Layer_1" data-name="Layer 1" xmlns="http://www.w3.org/2000/svg" width="64" height="64" viewBox="0 0 64 64"><title>logo-64</title><circle cx="31.2" cy="31.5" r="28.4"/><circle cx="31.4" cy="31.3" r="25.8" fill="#fff"/><circle cx="31" cy="31.8" r="23.6"/><circle cx="31.1" cy="31.7" r="21.4" fill="#fff"/><circle cx="31.1" cy="32.1" r="18.6"/><circle cx="31.2" cy="32" r="16.5" fill="#fff"/><path d="M59.7,32S46.9,47.3,31.2,47.3,2.8,32,2.8,32,15.5,16.8,31.2,16.8,59.7,32,59.7,32Z"/><path d="M17.5,29.2l-.2-.4-.6-.3-.7-.2a1.4,1.4,0,0,1-.9-1.2,1.4,1.4,0,0,1,.2-.7,1.8,1.8,0,0,1,.7-.5h1.8a1.5,1.5,0,0,1,.6.5,2.4,2.4,0,0,1,.2.8H17.5a.5.5,0,0,0-.2-.4c-.1-.2-.2-.2-.4-.2h-.5a.5.5,0,0,0-.2.4l.2.3.7.3.8.3a1.3,1.3,0,0,1,.7,1.2,1.3,1.3,0,0,1-.4,1,2.5,2.5,0,0,1-1.3.3l-1-.2a1.8,1.8,0,0,1-.7-.5,1.5,1.5,0,0,1-.2-.9h1.1a.8.8,0,0,0,.2.6l.6.2a.5.5,0,0,0,.4-.2C17.4,29.5,17.5,29.4,17.5,29.2Z" fill="#fff"/><path d="M23.5,25.8v3a2,2,0,0,1-.2.9,1.3,1.3,0,0,1-.7.6l-.9.2a2,2,0,0,1-1.4-.4,1.7,1.7,0,0,1-.5-1.2V25.8h1.1v3.1c.1.5.3.7.8.7h.5a1.4,1.4,0,0,0,.2-.7v-3Z" fill="#fff"/><path d="M26.5,28.8h-.6v1.6H24.8V25.8h1.8a1.7,1.7,0,0,1,1.3.4,1.2,1.2,0,0,1,.5,1,1.9,1.9,0,0,1-.2.8,1,1,0,0,1-.6.5l1,1.9H27.4Zm-.6-.9h1.2a.8.8,0,0,0,.2-.5c0-.2-.1-.3-.2-.5H25.9Z" fill="#fff"/><path d="M31.4,28.8h-.6v1.6H29.7V25.8h1.8a1.7,1.7,0,0,1,1.3.4,1.2,1.2,0,0,1,.5,1,1.9,1.9,0,0,1-.2.8,1,1,0,0,1-.6.5l.9,1.9H32.3Zm-.6-.9H32a.8.8,0,0,0,.2-.5c0-.2-.1-.3-.2-.5H30.8Z" fill="#fff"/><path d="M37.5,28.5H35.7v1.1h2.1v.8H34.6V25.8h3.2v.9H35.7v1h1.8Z" fill="#fff"/><path d="M41.5,29.6H40l-.3.8H38.5l1.7-4.6h1.1L43,30.4H41.8Zm-1.2-.9h1l-.5-1.6Z" fill="#fff"/><path d="M45.1,29.6h2v.8H44V25.8h1.1Z" fill="#fff"/><path d="M16.9,36.4l.9-3.3h1.3l-1.6,4.6H16.3l-1.5-4.6H16Z" fill="#fff"/><path d="M21.8,37.7H20.7V33.1h1.1Z" fill="#fff"/><path d="M26.1,36.4c0-.1,0-.2-.2-.3l-.6-.3-.7-.3a1.4,1.4,0,0,1-.9-1.2,1.4,1.4,0,0,1,.2-.7l.7-.4a1.5,1.5,0,0,1,.9-.2,1.5,1.5,0,0,1,.9.2,1,1,0,0,1,.6.5.8.8,0,0,1,.2.7H26.1c0-.2,0-.3-.2-.4a.5.5,0,0,0-.4-.2L25,34c-.1,0-.2.2-.2.3s.1.2.2.3l.7.3.8.3a1.3,1.3,0,0,1,.7,1.2,1.2,1.2,0,0,1-.4,1,2.5,2.5,0,0,1-1.3.3,1.6,1.6,0,0,1-1-.2,1.8,1.8,0,0,1-.7-.5,1.9,1.9,0,0,1-.2-.8h1.1a.8.8,0,0,0,.2.5.8.8,0,0,0,.6.2H26C26.1,36.7,26.1,36.6,26.1,36.4Z" fill="#fff"/><path d="M30.2,37.7H29V33.1h1.2Z" fill="#fff"/><path d="M36,35.5a5,5,0,0,1-.2,1.2,2.7,2.7,0,0,1-.7.8l-1.1.2a1.6,1.6,0,0,1-1-.2,3,3,0,0,1-.8-.8,3.7,3.7,0,0,1-.2-1.2v-.2a3.7,3.7,0,0,1,.2-1.2,1.9,1.9,0,0,1,.7-.8,2.2,2.2,0,0,1,2.2,0,1.9,1.9,0,0,1,.7.8,3.6,3.6,0,0,1,.2,1.1Zm-1.1-.2a3.1,3.1,0,0,0-.2-1.1.9.9,0,0,0-.7-.3q-.9,0-.9,1.2v.4a2.5,2.5,0,0,0,.2,1,1,1,0,0,0,.7.4.8.8,0,0,0,.7-.4,2.5,2.5,0,0,0,.2-1Z" fill="#fff"/><path d="M41.6,37.7H40.5l-1.6-2.9v2.9H37.8V33.1h1.1l1.6,2.8V33.1h1.1Z" fill="#fff"/><path d="M45.9,36.4c0-.1-.1-.2-.2-.3l-.6-.3-.7-.3a1.4,1.4,0,0,1-.9-1.2,1.4,1.4,0,0,1,.2-.7l.7-.4a1.3,1.3,0,0,1,.9-.2,1.5,1.5,0,0,1,.9.2,1,1,0,0,1,.6.5.8.8,0,0,1,.2.7H45.9c0-.2,0-.3-.2-.4a.5.5,0,0,0-.4-.2l-.5.2c-.1,0-.2.2-.2.3s.1.2.2.3l.7.3.8.3a1.3,1.3,0,0,1,.7,1.2,1.2,1.2,0,0,1-.4,1,2.5,2.5,0,0,1-1.3.3,1.6,1.6,0,0,1-1-.2,1.8,1.8,0,0,1-.7-.5,1.9,1.9,0,0,1-.2-.8h1.1a.8.8,0,0,0,.2.5.8.8,0,0,0,.6.2h.4C45.9,36.7,45.9,36.6,45.9,36.4Z" fill="#fff"/></svg>