<svg id="Layer_1" data-name="Layer 1" xmlns="http://www.w3.org/2000/svg" width="256" height="256" viewBox="0 0 256 256"><title>logo</title><circle cx="132" cy="125.9" r="101.9"/><circle cx="132.5" cy="125.4" r="92.6" fill="#fff"/><circle cx="131.3" cy="127.3" r="84.5"/><circle cx="131.6" cy="126.9" r="76.8" fill="#fff"/><circle cx="131.7" cy="128.2" r="66.6"/><circle cx="132" cy="127.9" r="59" fill="#fff"/><path d="M233.9,127.9S188.3,182.5,132,182.5,30.1,127.9,30.1,127.9,75.8,73.3,132,73.3,233.9,127.9,233.9,127.9Z"/><path d="M82.8,117.8a1.8,1.8,0,0,0-.6-1.4l-2.2-1a17.9,17.9,0,0,1-2.6-1c-2.1-1-3.2-2.5-3.2-4.3a4.1,4.1,0,0,1,.8-2.5,5,5,0,0,1,2.3-1.6,8.4,8.4,0,0,1,3.3-.6,8.3,8.3,0,0,1,3.2.6,5.9,5.9,0,0,1,2.2,1.9,4.6,4.6,0,0,1,.8,2.7h-4a2.1,2.1,0,0,0-.6-1.6,2.4,2.4,0,0,0-1.7-.6,2.9,2.9,0,0,0-1.7.5,1.4,1.4,0,0,0-.6,1.2,1.5,1.5,0,0,0,.7,1.2,7.1,7.1,0,0,0,2.4,1l2.8,1.2a4.9,4.9,0,0,1,2.7,4.3,4.1,4.1,0,0,1-1.7,3.4,7.5,7.5,0,0,1-4.5,1.3,8.6,8.6,0,0,1-3.6-.8,5.6,5.6,0,0,1-2.5-2,5.5,5.5,0,0,1-.8-2.9h4a2.4,2.4,0,0,0,.7,2,3.4,3.4,0,0,0,2.2.6,2.5,2.5,0,0,0,1.6-.4A1.4,1.4,0,0,0,82.8,117.8Z" fill="#fff"/><path d="M104.2,105.6v10.9a6.6,6.6,0,0,1-.8,3.2,4.5,4.5,0,0,1-2.3,2,7.1,7.1,0,0,1-3.4.8,6.9,6.9,0,0,1-4.8-1.6,5.5,5.5,0,0,1-1.8-4.3v-11h4v11.1c.1,1.8.9,2.7,2.6,2.7a2.5,2.5,0,0,0,1.8-.7,2.9,2.9,0,0,0,.7-2.2V105.6Z" fill="#fff"/><path d="M115.2,116.4H113v5.8h-4V105.6h6.5a8,8,0,0,1,4.7,1.3,4.4,4.4,0,0,1,1.6,3.7,5.2,5.2,0,0,1-.7,2.9,4.6,4.6,0,0,1-2.2,1.9l3.5,6.7h-4.3Zm-2.2-3.1h2.5a2.4,2.4,0,0,0,1.8-.6,3.1,3.1,0,0,0,0-3.4,2.4,2.4,0,0,0-1.8-.6H113Z" fill="#fff"/><path d="M132.8,116.4h-2.2v5.8h-4V105.6h6.5a7.6,7.6,0,0,1,4.6,1.3,4.5,4.5,0,0,1,1.7,3.7,4.8,4.8,0,0,1-2.9,4.8l3.5,6.7h-4.3Zm-2.2-3.1h2.5a2.2,2.2,0,0,0,1.7-.6,2.7,2.7,0,0,0,0-3.4,2.2,2.2,0,0,0-1.7-.6h-2.5Z" fill="#fff"/><path d="M154.4,115.2h-6.2v3.9h7.4v3.1H144.2V105.6h11.4v3.1h-7.4v3.5h6.2Z" fill="#fff"/><path d="M169,119.1h-5.5l-1,3.1h-4.2l6.1-16.6h3.7l6.1,16.6H170Zm-4.5-3.1H168l-1.8-5.7Z" fill="#fff"/><path d="M181.8,119.1h7v3.1h-11V105.6h4Z" fill="#fff"/><path d="M80.7,143.7,84,131.6h4.4l-5.6,16.6H78.5l-5.6-16.6h4.5Z" fill="#fff"/><path d="M98.1,148.2h-4V131.6h4Z" fill="#fff"/><path d="M113.7,143.8a1.7,1.7,0,0,0-.7-1.4,6.5,6.5,0,0,0-2.2-1l-2.5-1c-2.2-1.1-3.2-2.5-3.2-4.4a3.5,3.5,0,0,1,.8-2.4,5.4,5.4,0,0,1,2.2-1.7,9,9,0,0,1,3.4-.6,8.8,8.8,0,0,1,3.2.7,5.5,5.5,0,0,1,2.2,1.8,5,5,0,0,1,.8,2.7h-4a1.9,1.9,0,0,0-.7-1.6,2.5,2.5,0,0,0-1.6-.5,2.7,2.7,0,0,0-1.7.4,1.9,1.9,0,0,0-.7,1.2,1.5,1.5,0,0,0,.7,1.2,14.2,14.2,0,0,0,2.4,1.1,9.7,9.7,0,0,1,2.9,1.2,4.6,4.6,0,0,1,2.7,4.2,4.3,4.3,0,0,1-1.7,3.5,7.5,7.5,0,0,1-4.5,1.2,8.3,8.3,0,0,1-3.6-.7,5.7,5.7,0,0,1-2.5-2,4.7,4.7,0,0,1-.8-2.9h4a2.6,2.6,0,0,0,.7,2,3.2,3.2,0,0,0,2.2.6,3.4,3.4,0,0,0,1.6-.4A1.4,1.4,0,0,0,113.7,143.8Z" fill="#fff"/><path d="M128.2,148.2h-4V131.6h4Z" fill="#fff"/><path d="M149.2,140.2a9.7,9.7,0,0,1-.9,4.3,6.5,6.5,0,0,1-2.5,2.9,7.7,7.7,0,0,1-7.6,0,6.2,6.2,0,0,1-2.5-2.8,8,8,0,0,1-1-4.1v-1a10,10,0,0,1,.9-4.3,5.9,5.9,0,0,1,2.6-2.8,6.8,6.8,0,0,1,3.8-1.1,7.6,7.6,0,0,1,3.7,1,7.3,7.3,0,0,1,2.6,2.9,9.7,9.7,0,0,1,.9,4.3Zm-4.1-.7a6.4,6.4,0,0,0-.8-3.7,2.5,2.5,0,0,0-2.3-1.3c-2.1,0-3.1,1.5-3.2,4.5v1.2a6.9,6.9,0,0,0,.8,3.8,2.7,2.7,0,0,0,2.4,1.3,2.6,2.6,0,0,0,2.3-1.3,6.6,6.6,0,0,0,.8-3.7Z" fill="#fff"/><path d="M169.3,148.2h-3.9l-5.9-10.4v10.4h-4V131.6h4l5.9,10.3V131.6h3.9Z" fill="#fff"/><path d="M184.6,143.8a1.7,1.7,0,0,0-.6-1.4,6.5,6.5,0,0,0-2.2-1l-2.5-1c-2.2-1.1-3.2-2.5-3.2-4.4a3.5,3.5,0,0,1,.8-2.4,5.4,5.4,0,0,1,2.2-1.7,8.7,8.7,0,0,1,6.6.1,5.5,5.5,0,0,1,2.2,1.8,5,5,0,0,1,.7,2.7h-3.9a2.2,2.2,0,0,0-.7-1.6,2.5,2.5,0,0,0-1.6-.5,2.7,2.7,0,0,0-1.7.4,1.5,1.5,0,0,0-.7,1.2,1.5,1.5,0,0,0,.7,1.2,14.2,14.2,0,0,0,2.4,1.1,9.7,9.7,0,0,1,2.9,1.2,4.5,4.5,0,0,1,2.6,4.2,4.2,4.2,0,0,1-1.6,3.5,7.5,7.5,0,0,1-4.5,1.2,9,9,0,0,1-3.7-.7,6,6,0,0,1-2.4-2,4.7,4.7,0,0,1-.8-2.9h4a2.6,2.6,0,0,0,.7,2,3.2,3.2,0,0,0,2.2.6,3.4,3.4,0,0,0,1.6-.4A1.3,1.3,0,0,0,184.6,143.8Z" fill="#fff"/></svg>