<svg id="Layer_1" data-name="Layer 1" xmlns="http://www.w3.org/2000/svg" width="32" height="32" viewBox="0 0 32 32"><title>Artboard 1</title><circle cx="15.8" cy="15.6" r="13.9"/><circle cx="15.8" cy="15.5" r="12.7" fill="#fff"/><circle cx="15.7" cy="15.8" r="11.6"/><circle cx="15.7" cy="15.7" r="10.5" fill="#fff"/><circle cx="15.7" cy="15.9" r="9.1"/><circle cx="15.8" cy="15.9" r="8.1" fill="#fff"/><path d="M29.7,15.9s-6.2,7.4-13.9,7.4-14-7.4-14-7.4,6.3-7.5,14-7.5S29.7,15.9,29.7,15.9Z"/><path d="M9,14.5v-.2H8.7L8.3,14a.5.5,0,0,1-.4-.6.4.4,0,0,1,.1-.3l.3-.2h.9l.3.2a.6.6,0,0,1,.1.4H9v-.2H8.4v.2h.3l.4.2a.5.5,0,0,1,.4.6c0,.2-.1.3-.2.5H8.2l-.3-.2a.8.8,0,0,1-.1-.4h.5v.2H9Z" fill="#fff"/><path d="M12,12.8v1.5c0,.2-.1.3-.1.5l-.3.2h-.5a.7.7,0,0,1-.9-.8V12.8h.5v1.5a.4.4,0,0,0,.4.4h.2c.1,0,.1-.1.1-.3V12.8Z" fill="#fff"/><path d="M13.5,14.3h-.3v.8h-.6V12.8h.9l.7.2a.8.8,0,0,1,.2.5c0,.2-.1.3-.1.4l-.3.3.5.9h-.6Zm-.3-.4h.6v-.5h-.6Z" fill="#fff"/><path d="M15.9,14.3h-.3v.8H15V12.8h.9l.7.2a.8.8,0,0,1,.2.5c0,.2,0,.3-.1.4l-.3.3.5.9h-.6Zm-.3-.4h.6v-.5h-.6Z" fill="#fff"/><path d="M18.8,14.1H18v.6h1v.4H17.4V12.8H19v.4H18v.5h.8Z" fill="#fff"/><path d="M20.8,14.7h-.7l-.2.4h-.5l.8-2.3h.5l.8,2.3H21Zm-.6-.4h.5l-.2-.8Z" fill="#fff"/><path d="M22.6,14.7h.9v.4H22V12.8h.6Z" fill="#fff"/><path d="M8.8,18l.4-1.6h.6L9,18.6H8.5l-.8-2.2h.6Z" fill="#fff"/><path d="M11.1,18.6h-.5V16.4h.5Z" fill="#fff"/><path d="M13.3,18h-.1l-.3-.2h-.4a.7.7,0,0,1-.4-.6.6.6,0,0,1,.1-.4l.3-.2h.9l.3.3a.4.4,0,0,1,.1.3h-.5v-.2h-.5c0,.1-.1.1-.1.2h.1l.4.2.3.2a.5.5,0,0,1,.4.5.8.8,0,0,1-.2.5l-.6.2h-.5l-.4-.3c0-.1-.1-.2-.1-.4h.6a.4.4,0,0,0,.1.3h.5A.3.3,0,0,0,13.3,18Z" fill="#fff"/><path d="M15.2,18.6h-.5V16.4h.5Z" fill="#fff"/><path d="M18.1,17.6a.7.7,0,0,1-.1.5l-.3.4-.6.2-.5-.2c-.1,0-.2-.2-.3-.3a1.4,1.4,0,0,1-.2-.6h0a.8.8,0,0,1,.2-.6c0-.2.2-.3.3-.4l.5-.2.5.2.4.4c.1.1.1.3.1.6Zm-.5-.1c0-.3-.1-.4-.1-.6h-.4c-.2,0-.4.2-.4.6v.2a.7.7,0,0,0,.1.5h.7a4.3,4.3,0,0,0,.1-.5Z" fill="#fff"/><path d="M20.9,18.6h-.6l-.8-1.4v1.4H19V16.4h.5l.8,1.4V16.4h.6Z" fill="#fff"/><path d="M23,18h-.1l-.3-.2h-.4a.7.7,0,0,1-.4-.6.6.6,0,0,1,.1-.4l.3-.2h.9l.3.3a.4.4,0,0,1,.1.3H23v-.2h-.5c0,.1-.1.1-.1.2h.1l.4.2.4.2a.5.5,0,0,1,.3.5.8.8,0,0,1-.2.5l-.6.2h-.5l-.4-.3c0-.1-.1-.2-.1-.4h.6a.4.4,0,0,0,.1.3h.5A.3.3,0,0,0,23,18Z" fill="#fff"/></svg>